<mxfile host="65bd71144e">
    <diagram id="DinOYG-t2vnIGwPmQIeH" name="Page-1">
        <mxGraphModel dx="1378" dy="760" grid="1" gridSize="10" guides="1" tooltips="1" connect="1" arrows="1" fold="1" page="1" pageScale="1" pageWidth="850" pageHeight="1100" math="0" shadow="0">
            <root>
                <mxCell id="0"/>
                <mxCell id="1" parent="0"/>
                <mxCell id="73" style="edgeStyle=orthogonalEdgeStyle;rounded=0;orthogonalLoop=1;jettySize=auto;html=1;strokeWidth=3;" parent="1" edge="1">
                    <mxGeometry relative="1" as="geometry">
                        <mxPoint x="227" y="450" as="sourcePoint"/>
                        <mxPoint x="227" y="500" as="targetPoint"/>
                        <Array as="points">
                            <mxPoint x="227" y="480"/>
                            <mxPoint x="227" y="480"/>
                        </Array>
                    </mxGeometry>
                </mxCell>
                <mxCell id="2" value="" style="shape=step;perimeter=stepPerimeter;whiteSpace=wrap;html=1;fixedSize=1;fillColor=#cce5ff;strokeColor=#36393d;" parent="1" vertex="1">
                    <mxGeometry x="166.5" y="332" width="120" height="110" as="geometry"/>
                </mxCell>
                <mxCell id="3" value="" style="shape=step;perimeter=stepPerimeter;whiteSpace=wrap;html=1;fixedSize=1;fillColor=#f9f7ed;strokeColor=#36393d;" parent="1" vertex="1">
                    <mxGeometry x="276.5" y="332" width="120" height="110" as="geometry"/>
                </mxCell>
                <mxCell id="4" value="" style="shape=step;perimeter=stepPerimeter;whiteSpace=wrap;html=1;fixedSize=1;fillColor=#cce5ff;strokeColor=#36393d;" parent="1" vertex="1">
                    <mxGeometry x="386.5" y="332" width="203.5" height="110" as="geometry"/>
                </mxCell>
                <mxCell id="5" value="" style="shape=step;perimeter=stepPerimeter;whiteSpace=wrap;html=1;fixedSize=1;fillColor=#eeeeee;strokeColor=#36393d;" parent="1" vertex="1">
                    <mxGeometry x="580" y="332" width="120" height="110" as="geometry"/>
                </mxCell>
                <mxCell id="6" value="&lt;font color=&quot;#000000&quot;&gt;&lt;b&gt;push to &lt;br&gt;development&lt;br&gt;detected&lt;/b&gt;&lt;br&gt;&lt;/font&gt;" style="dashed=0;outlineConnect=0;html=1;align=center;labelPosition=center;verticalLabelPosition=bottom;verticalAlign=top;shape=mxgraph.weblogos.github" parent="1" vertex="1">
                    <mxGeometry x="199.5" y="340" width="54" height="55" as="geometry"/>
                </mxCell>
                <mxCell id="80" value="&lt;font color=&quot;#ededed&quot;&gt;push from&lt;br&gt;local branch&lt;/font&gt;" style="edgeStyle=orthogonalEdgeStyle;rounded=0;orthogonalLoop=1;jettySize=auto;html=1;fontColor=#000000;" edge="1" parent="1" source="9" target="2">
                    <mxGeometry relative="1" as="geometry"/>
                </mxCell>
                <mxCell id="9" value="" style="fontColor=#0066CC;verticalAlign=top;verticalLabelPosition=bottom;labelPosition=center;align=center;html=1;outlineConnect=0;fillColor=#CCCCCC;strokeColor=#6881B3;gradientColor=none;gradientDirection=north;strokeWidth=2;shape=mxgraph.networks.laptop;" parent="1" vertex="1">
                    <mxGeometry x="14" y="358.5" width="100" height="55" as="geometry"/>
                </mxCell>
                <mxCell id="10" value="Deploy/update Infrastructure" style="shape=image;verticalLabelPosition=bottom;labelBackgroundColor=none;verticalAlign=top;aspect=fixed;imageAspect=0;image=https://dashboard.snapcraft.io/site_media/appmedia/2019/11/terraform.png;fontColor=#000000;" parent="1" vertex="1">
                    <mxGeometry x="450.25" y="340" width="72.5" height="72.5" as="geometry"/>
                </mxCell>
                <mxCell id="11" value="" style="group" parent="1" vertex="1" connectable="0">
                    <mxGeometry x="306.5" y="347.5" width="80" height="66" as="geometry"/>
                </mxCell>
                <mxCell id="77" value="" style="group" vertex="1" connectable="0" parent="11">
                    <mxGeometry y="-4" width="80" height="70" as="geometry"/>
                </mxCell>
                <mxCell id="79" value="" style="group" vertex="1" connectable="0" parent="77">
                    <mxGeometry x="-6.5" y="6.5" width="80" height="70" as="geometry"/>
                </mxCell>
                <mxCell id="7" value="Run unittests" style="aspect=fixed;html=1;points=[];align=center;image;fontSize=12;image=img/lib/azure2/general/Load_Test.svg;" parent="79" vertex="1">
                    <mxGeometry y="4" width="68" height="66" as="geometry"/>
                </mxCell>
                <mxCell id="8" value="" style="shape=image;verticalLabelPosition=bottom;labelBackgroundColor=#ffffff;verticalAlign=top;aspect=fixed;imageAspect=0;image=https://upload.wikimedia.org/wikipedia/commons/thumb/c/c3/Python-logo-notext.svg/1200px-Python-logo-notext.svg.png;" parent="79" vertex="1">
                    <mxGeometry x="40" width="40" height="40" as="geometry"/>
                </mxCell>
                <mxCell id="16" value="" style="shape=step;perimeter=stepPerimeter;whiteSpace=wrap;html=1;fixedSize=1;fillColor=#cce5ff;strokeColor=#36393d;" parent="1" vertex="1">
                    <mxGeometry x="690" y="330" width="120" height="110" as="geometry"/>
                </mxCell>
                <mxCell id="15" value="&lt;font color=&quot;#000000&quot;&gt;&lt;b&gt;Update alias &lt;br&gt;versions&lt;/b&gt;&lt;/font&gt;" style="outlineConnect=0;dashed=0;verticalLabelPosition=bottom;verticalAlign=top;align=center;html=1;shape=mxgraph.aws3.lambda;fillColor=#F58534;gradientColor=none;" parent="1" vertex="1">
                    <mxGeometry x="717.72" y="333.5" width="64.56" height="68" as="geometry"/>
                </mxCell>
                <mxCell id="17" value="" style="shape=step;perimeter=stepPerimeter;whiteSpace=wrap;html=1;fixedSize=1;fillColor=#cce5ff;strokeColor=#36393d;" parent="1" vertex="1">
                    <mxGeometry x="913.5" y="330" width="120" height="110" as="geometry"/>
                </mxCell>
                <mxCell id="18" value="&lt;font color=&quot;#000000&quot;&gt;&lt;b&gt;merge to &lt;br&gt;master branch&lt;/b&gt;&lt;/font&gt;" style="dashed=0;outlineConnect=0;html=1;align=center;labelPosition=center;verticalLabelPosition=bottom;verticalAlign=top;shape=mxgraph.weblogos.github" parent="1" vertex="1">
                    <mxGeometry x="943" y="341.25" width="61" height="62.5" as="geometry"/>
                </mxCell>
                <mxCell id="21" value="" style="group" parent="1" vertex="1" connectable="0">
                    <mxGeometry x="461.75" y="513" width="59.75" height="73.25" as="geometry"/>
                </mxCell>
                <mxCell id="19" value="" style="shape=image;verticalLabelPosition=bottom;labelBackgroundColor=#ffffff;verticalAlign=top;aspect=fixed;imageAspect=0;image=https://cdn.worldvectorlogo.com/logos/slack-1.svg;" parent="21" vertex="1">
                    <mxGeometry y="7.146341463414634" width="59.74999999999999" height="59.74999999999999" as="geometry"/>
                </mxCell>
                <mxCell id="20" value="" style="shape=image;verticalLabelPosition=bottom;labelBackgroundColor=#ffffff;verticalAlign=top;aspect=fixed;imageAspect=0;image=https://upload.wikimedia.org/wikipedia/commons/thumb/c/cc/Cross_red_circle.svg/1200px-Cross_red_circle.svg.png;" parent="21" vertex="1">
                    <mxGeometry x="32.2972972972973" width="23.577027027027025" height="23.577027027027025" as="geometry"/>
                </mxCell>
                <mxCell id="55" value="" style="endArrow=classic;html=1;exitX=0.5;exitY=0;exitDx=0;exitDy=0;strokeWidth=3;" parent="1" source="4" edge="1">
                    <mxGeometry width="50" height="50" relative="1" as="geometry">
                        <mxPoint x="250" y="300" as="sourcePoint"/>
                        <mxPoint x="488" y="271" as="targetPoint"/>
                    </mxGeometry>
                </mxCell>
                <mxCell id="58" value="" style="endArrow=classic;html=1;exitX=0.5;exitY=0;exitDx=0;exitDy=0;entryX=0.167;entryY=1.006;entryDx=0;entryDy=0;strokeWidth=3;entryPerimeter=0;" parent="1" edge="1">
                    <mxGeometry width="50" height="50" relative="1" as="geometry">
                        <mxPoint x="741.0600000000001" y="332" as="sourcePoint"/>
                        <mxPoint x="740.0044999999999" y="271.3799999999999" as="targetPoint"/>
                    </mxGeometry>
                </mxCell>
                <mxCell id="66" value="" style="shape=step;perimeter=stepPerimeter;whiteSpace=wrap;html=1;fixedSize=1;fillColor=#f9f7ed;strokeColor=#36393d;" parent="1" vertex="1">
                    <mxGeometry x="800" y="330" width="120" height="110" as="geometry"/>
                </mxCell>
                <mxCell id="72" value="" style="group" parent="1" vertex="1" connectable="0">
                    <mxGeometry x="199.5" y="500" width="60.5" height="70" as="geometry"/>
                </mxCell>
                <mxCell id="68" value="" style="shape=image;verticalLabelPosition=bottom;labelBackgroundColor=#ffffff;verticalAlign=top;aspect=fixed;imageAspect=0;image=https://cdn.worldvectorlogo.com/logos/slack-1.svg;" parent="72" vertex="1">
                    <mxGeometry y="6.829268292682927" width="60.5" height="60.5" as="geometry"/>
                </mxCell>
                <mxCell id="71" value="" style="shape=image;verticalLabelPosition=bottom;labelBackgroundColor=#ffffff;verticalAlign=top;aspect=fixed;imageAspect=0;image=https://icons.iconarchive.com/icons/custom-icon-design/flatastic-9/512/Start-icon.png;" parent="72" vertex="1">
                    <mxGeometry x="37.281081081081076" width="20.92972972972973" height="20.92972972972973" as="geometry"/>
                </mxCell>
                <mxCell id="63" value="" style="group" parent="1" vertex="1" connectable="0">
                    <mxGeometry x="826.63" y="341.25" width="66.75" height="70" as="geometry"/>
                </mxCell>
                <mxCell id="60" value="Notify success" style="shape=image;verticalLabelPosition=bottom;labelBackgroundColor=#ffffff;verticalAlign=top;aspect=fixed;imageAspect=0;image=https://cdn.worldvectorlogo.com/logos/slack-1.svg;fontColor=#000000;" parent="63" vertex="1">
                    <mxGeometry y="5.5721393034825875" width="64.42786069651741" height="64.42786069651741" as="geometry"/>
                </mxCell>
                <mxCell id="62" value="" style="shape=image;verticalLabelPosition=bottom;labelBackgroundColor=#ffffff;verticalAlign=top;aspect=fixed;imageAspect=0;image=https://upload.wikimedia.org/wikipedia/commons/thumb/e/e0/Check_green_icon.svg/2048px-Check_green_icon.svg.png;" parent="63" vertex="1">
                    <mxGeometry x="41.31283783783783" width="24.552238805970152" height="24.552238805970152" as="geometry"/>
                </mxCell>
                <mxCell id="74" value="" style="shape=curlyBracket;whiteSpace=wrap;html=1;rounded=1;strokeWidth=3;rotation=-90;" parent="1" vertex="1">
                    <mxGeometry x="455" y="280" width="66.5" height="430" as="geometry"/>
                </mxCell>
                <mxCell id="27" value="" style="rounded=0;whiteSpace=wrap;html=1;" parent="1" vertex="1">
                    <mxGeometry x="455.75" y="40" width="333.5" height="229.99999999999997" as="geometry"/>
                </mxCell>
                <mxCell id="32" value="" style="shape=image;verticalLabelPosition=bottom;labelBackgroundColor=#ffffff;verticalAlign=top;aspect=fixed;imageAspect=0;image=https://logos-world.net/wp-content/uploads/2021/08/Amazon-Web-Services-AWS-Emblem.png;" parent="1" vertex="1">
                    <mxGeometry x="457.26" y="42" width="70.99" height="40" as="geometry"/>
                </mxCell>
                <mxCell id="37" value="" style="group" parent="1" vertex="1" connectable="0">
                    <mxGeometry x="532.75" y="55.33333333333333" width="73" height="122.66666666666664" as="geometry"/>
                </mxCell>
                <mxCell id="34" value="" style="whiteSpace=wrap;html=1;aspect=fixed;" parent="37" vertex="1">
                    <mxGeometry width="58.4" height="58.4" as="geometry"/>
                </mxCell>
                <mxCell id="35" value="" style="whiteSpace=wrap;html=1;aspect=fixed;" parent="37" vertex="1">
                    <mxGeometry x="7.3" y="12.266666666666666" width="58.4" height="58.4" as="geometry"/>
                </mxCell>
                <mxCell id="36" value="Dev Stage" style="whiteSpace=wrap;html=1;aspect=fixed;" parent="37" vertex="1">
                    <mxGeometry x="14.6" y="24.53333333333333" width="58.4" height="58.4" as="geometry"/>
                </mxCell>
                <mxCell id="38" value="" style="group" parent="1" vertex="1" connectable="0">
                    <mxGeometry x="672.75" y="55.33333333333333" width="73" height="122.66666666666664" as="geometry"/>
                </mxCell>
                <mxCell id="39" value="" style="whiteSpace=wrap;html=1;aspect=fixed;" parent="38" vertex="1">
                    <mxGeometry width="58.4" height="58.4" as="geometry"/>
                </mxCell>
                <mxCell id="40" value="" style="whiteSpace=wrap;html=1;aspect=fixed;" parent="38" vertex="1">
                    <mxGeometry x="7.3" y="12.266666666666666" width="58.4" height="58.4" as="geometry"/>
                </mxCell>
                <mxCell id="41" value="Prod Stage" style="whiteSpace=wrap;html=1;aspect=fixed;" parent="38" vertex="1">
                    <mxGeometry x="14.6" y="24.53333333333333" width="58.4" height="58.4" as="geometry"/>
                </mxCell>
                <mxCell id="22" value="" style="outlineConnect=0;fontColor=#232F3E;gradientColor=none;fillColor=#D05C17;strokeColor=none;dashed=0;verticalLabelPosition=bottom;verticalAlign=top;align=center;html=1;fontSize=12;fontStyle=0;aspect=fixed;pointerEvents=1;shape=mxgraph.aws4.lambda_function;" parent="1" vertex="1">
                    <mxGeometry x="532.75" y="150" width="78" height="78" as="geometry"/>
                </mxCell>
                <mxCell id="54" value="" style="outlineConnect=0;fontColor=#232F3E;gradientColor=none;fillColor=#D05C17;strokeColor=none;dashed=0;verticalLabelPosition=bottom;verticalAlign=top;align=center;html=1;fontSize=12;fontStyle=0;aspect=fixed;pointerEvents=1;shape=mxgraph.aws4.lambda_function;" parent="1" vertex="1">
                    <mxGeometry x="672.75" y="150" width="78" height="78" as="geometry"/>
                </mxCell>
                <mxCell id="56" value="Function alias: Dev" style="text;html=1;strokeColor=none;fillColor=none;align=center;verticalAlign=middle;whiteSpace=wrap;rounded=0;" parent="1" vertex="1">
                    <mxGeometry x="511.63" y="230" width="120.25" height="20" as="geometry"/>
                </mxCell>
                <mxCell id="57" value="Function alias: Prod" style="text;html=1;strokeColor=none;fillColor=none;align=center;verticalAlign=middle;whiteSpace=wrap;rounded=0;" parent="1" vertex="1">
                    <mxGeometry x="649.13" y="230" width="120.25" height="20" as="geometry"/>
                </mxCell>
                <mxCell id="25" value="" style="shape=image;verticalLabelPosition=bottom;labelBackgroundColor=#ffffff;verticalAlign=top;aspect=fixed;imageAspect=0;image=https://cdn.freebiesupply.com/logos/large/2x/aws-api-gateway-logo-png-transparent.png;" parent="1" vertex="1">
                    <mxGeometry x="425" y="115" width="66" height="80" as="geometry"/>
                </mxCell>
                <mxCell id="76" value="" style="group" vertex="1" connectable="0" parent="1">
                    <mxGeometry x="610" y="347.25" width="80" height="70.75" as="geometry"/>
                </mxCell>
                <mxCell id="78" value="" style="group" vertex="1" connectable="0" parent="76">
                    <mxGeometry x="-10" y="2.75" width="80" height="73.25" as="geometry"/>
                </mxCell>
                <mxCell id="13" value="Test deployed &lt;br&gt;application" style="aspect=fixed;html=1;points=[];align=center;image;fontSize=12;image=img/lib/azure2/general/Load_Test.svg;" parent="78" vertex="1">
                    <mxGeometry y="7.25" width="68" height="66" as="geometry"/>
                </mxCell>
                <mxCell id="14" value="" style="shape=image;verticalLabelPosition=bottom;labelBackgroundColor=#ffffff;verticalAlign=top;aspect=fixed;imageAspect=0;image=https://upload.wikimedia.org/wikipedia/commons/thumb/c/c3/Python-logo-notext.svg/1200px-Python-logo-notext.svg.png;" parent="78" vertex="1">
                    <mxGeometry x="40" width="40" height="40" as="geometry"/>
                </mxCell>
            </root>
        </mxGraphModel>
    </diagram>
</mxfile>